<svg width="234" height="234" viewBox="0 0 234 234" fill="none" xmlns="http://www.w3.org/2000/svg">
<rect width="234" height="234" fill="#850AE5"/>
<path d="M59.8 151V81H87.9C95.1667 81 100.7 82.7 104.5 86.1C108.367 89.4333 110.3 93.7333 110.3 99C110.3 103.4 109.1 106.933 106.7 109.6C104.367 112.2 101.5 113.967 98.1 114.9C102.1 115.7 105.4 117.7 108 120.9C110.6 124.033 111.9 127.7 111.9 131.9C111.9 137.433 109.9 142 105.9 145.6C101.9 149.2 96.2333 151 88.9 151H59.8ZM72.6 110.4H86C89.6 110.4 92.3667 109.567 94.3 107.9C96.2333 106.233 97.2 103.867 97.2 100.8C97.2 97.8667 96.2333 95.5667 94.3 93.9C92.4333 92.1667 89.6 91.3 85.8 91.3H72.6V110.4ZM72.6 140.6H86.9C90.7 140.6 93.6333 139.733 95.7 138C97.8333 136.2 98.9 133.7 98.9 130.5C98.9 127.233 97.8 124.667 95.6 122.8C93.4 120.933 90.4333 120 86.7 120H72.6V140.6ZM122.886 151V81H150.986C158.253 81 163.786 82.7 167.586 86.1C171.453 89.4333 173.386 93.7333 173.386 99C173.386 103.4 172.186 106.933 169.786 109.6C167.453 112.2 164.586 113.967 161.186 114.9C165.186 115.7 168.486 117.7 171.086 120.9C173.686 124.033 174.986 127.7 174.986 131.9C174.986 137.433 172.986 142 168.986 145.6C164.986 149.2 159.319 151 151.986 151H122.886ZM135.686 110.4H149.086C152.686 110.4 155.453 109.567 157.386 107.9C159.319 106.233 160.286 103.867 160.286 100.8C160.286 97.8667 159.319 95.5667 157.386 93.9C155.519 92.1667 152.686 91.3 148.886 91.3H135.686V110.4ZM135.686 140.6H149.986C153.786 140.6 156.719 139.733 158.786 138C160.919 136.2 161.986 133.7 161.986 130.5C161.986 127.233 160.886 124.667 158.686 122.8C156.486 120.933 153.519 120 149.786 120H135.686V140.6Z" fill="white"/>
</svg>
