<?xml version="1.0" standalone="no"?>
<!DOCTYPE svg PUBLIC "-//W3C//DTD SVG 20010904//EN"
 "http://www.w3.org/TR/2001/REC-SVG-20010904/DTD/svg10.dtd">
<svg version="1.0" xmlns="http://www.w3.org/2000/svg"
 width="700.000000pt" height="700.000000pt" viewBox="0 0 700.000000 700.000000"
 preserveAspectRatio="xMidYMid meet">
<metadata>
Created by potrace 1.14, written by Peter Selinger 2001-2017
</metadata>
<g transform="translate(0.000000,700.000000) scale(0.100000,-0.100000)"
fill="#000000" stroke="none">
<path d="M0 3500 l0 -3500 3500 0 3500 0 0 3500 0 3500 -3500 0 -3500 0 0
-3500z m3918 1165 c221 -52 388 -245 465 -535 45 -168 52 -233 51 -460 0 -183
-4 -230 -23 -319 -52 -245 -164 -430 -303 -502 -37 -19 -50 -46 -25 -53 84
-24 117 -44 182 -110 112 -112 188 -285 231 -521 27 -150 25 -507 -4 -665 -28
-155 -64 -265 -125 -385 -42 -82 -67 -116 -137 -186 -88 -89 -146 -125 -251
-156 -45 -13 -133 -17 -536 -20 l-483 -5 0 1966 0 1966 448 0 c359 0 459 -3
510 -15z m1840 0 c95 -23 169 -63 244 -134 121 -113 200 -272 250 -503 19 -90
22 -133 23 -343 0 -216 -2 -251 -23 -345 -53 -234 -169 -426 -296 -487 -26
-12 -36 -23 -36 -40 0 -15 6 -23 18 -23 38 0 126 -52 175 -104 100 -103 185
-295 222 -501 25 -137 31 -451 11 -601 -59 -446 -241 -730 -522 -810 -51 -15
-125 -18 -541 -22 l-483 -4 0 1966 0 1966 448 0 c361 0 459 -3 510 -15z"/>
<path d="M3380 3525 l0 -485 188 0 c212 0 239 7 307 76 45 46 97 154 116 239
19 85 16 294 -4 378 -32 130 -90 215 -172 253 -47 22 -62 24 -242 24 l-193 0
0 -485z"/>
<path d="M3385 2468 c-3 -7 -4 -242 -3 -523 l3 -510 215 0 c203 1 218 2 267
24 95 42 155 128 190 271 25 98 21 321 -6 425 -40 150 -108 252 -199 297 -44
21 -61 23 -254 26 -167 3 -209 1 -213 -10z"/>
<path d="M5230 3524 l0 -485 193 3 194 3 49 30 c64 40 118 118 151 219 23 72
26 98 27 231 1 165 -9 222 -55 322 -34 71 -98 134 -157 151 -24 7 -111 12
-221 12 l-181 0 0 -486z"/>
<path d="M5230 1954 l0 -526 213 4 c232 5 266 12 336 67 45 36 92 121 117 211
27 97 25 346 -4 453 -28 103 -74 187 -132 241 -71 66 -115 76 -342 76 l-188 0
0 -526z"/>
</g>
</svg>
