<svg width="108" height="104" viewBox="0 0 108 104" fill="none" xmlns="http://www.w3.org/2000/svg">
<g clip-path="url(#clip0_9_19)" filter="url(#filter0_d_9_19)">
<path d="M4.1875 75.0835C4.4875 74.6001 4.96667 74.5668 5.6375 74.9918C20.7875 83.7835 37.2792 88.1835 55.0958 88.1835C66.9792 88.1835 78.7125 85.9626 90.2917 81.5376L91.6042 80.9543C92.1792 80.7043 92.5792 80.5376 92.825 80.4126C93.7667 80.046 94.45 80.221 95.0125 80.9543C95.5125 81.6793 95.3875 82.3543 94.5125 82.9543C93.4458 83.746 92.0125 84.6626 90.3208 85.6793C85.1375 88.7751 79.3208 91.1626 72.8833 92.871C57.8052 96.9444 41.8208 96.1022 27.2542 90.4668C18.9366 87.2081 11.273 82.4801 4.62917 76.5085C4.2125 76.2001 4 75.8835 4 75.5918C4 75.396 4.0875 75.2168 4.2125 75.0501L4.1875 75.0835ZM31.5417 49.1751C31.5417 44.9876 32.5708 41.4126 34.6375 38.4376C36.7 35.4793 39.5125 33.2293 43.1375 31.7085C46.4542 30.3126 50.4542 29.3126 55.2708 28.7085C56.8958 28.5168 59.575 28.2793 63.2708 27.9835V26.4418C63.2708 22.5668 62.8333 19.9501 62.0208 18.6293C60.7625 16.8376 58.7708 15.921 56.0208 15.921H55.2625C53.2625 16.1126 51.5292 16.7376 50.0708 17.8376C48.6125 18.9626 47.675 20.4626 47.2583 22.4043C47.0083 23.6543 46.4 24.3418 45.4458 24.5293L34.9458 23.2168C33.9125 22.9668 33.3958 22.4668 33.3958 21.5918C33.3958 21.4001 33.425 21.2168 33.4875 20.9668C34.5167 15.5918 37.05 11.5918 41.0708 8.9668C45.1375 6.40013 49.8208 4.9043 55.1958 4.5918H57.4458C64.3208 4.5918 69.7667 6.40013 73.6458 9.9668C74.2083 10.5918 74.7708 11.2168 75.3333 11.9668C75.8333 12.6543 76.2667 13.2751 76.5125 13.8418C76.825 14.4001 77.1375 15.2168 77.325 16.2168C77.575 17.2751 77.7625 17.9668 77.8875 18.3418C78.0125 18.7751 78.1458 19.5918 78.2042 20.9043C78.2458 22.2085 78.2875 22.9585 78.2875 23.2085V45.2085C78.2875 46.7751 78.5375 48.2085 78.975 49.5251C79.4125 50.8293 79.85 51.7751 80.2875 52.3335L82.4125 55.1418C82.7875 55.7085 82.9792 56.2085 82.9792 56.6418C82.9792 57.1418 82.7292 57.5835 82.2292 57.9501C77.2292 62.3251 74.4792 64.7001 74.05 65.0751C73.3625 65.6376 72.4875 65.7001 71.425 65.2626C70.654 64.618 69.9221 63.9278 69.2333 63.196L67.9417 61.7501C67.4851 61.1792 67.0447 60.5957 66.6208 60.0001L65.3708 58.1876C61.9958 61.8793 58.6917 64.1876 55.3708 65.1251C53.3125 65.7501 50.8167 66.071 47.7458 66.071C43.1208 66.071 39.2458 64.6418 36.2458 61.7626C33.2458 58.8876 31.7458 54.8251 31.7458 49.5126L31.5375 49.196L31.5417 49.1751ZM47.1792 47.3501C47.1792 49.7085 47.7625 51.6001 48.95 53.0335C50.1375 54.4501 51.7625 55.1668 53.7625 55.1668C53.95 55.1668 54.2042 55.1376 54.575 55.0835C54.95 55.0168 55.1333 54.9876 55.2667 54.9876C57.825 54.321 59.7667 52.6835 61.2 50.0793C61.8875 48.9126 62.3875 47.6626 62.7 46.2876C63.075 44.9543 63.2 43.8293 63.2625 42.9543C63.325 42.1418 63.325 40.7043 63.325 38.7668V36.5168C59.825 36.5168 57.1417 36.7668 55.325 37.2668C50.0125 38.7668 47.325 42.1418 47.325 47.3918L47.1792 47.3085V47.3501ZM85.3542 76.6293C85.4792 76.3793 85.6667 76.171 85.9042 75.921C87.4125 74.9085 88.8792 74.2126 90.2792 73.8376C92.4787 73.2792 94.729 72.9441 96.9958 72.8376C97.5792 72.7876 98.1625 72.8376 98.7042 72.9626C101.412 73.2126 103.079 73.6626 103.587 74.3376C103.85 74.7126 104 75.2876 104 75.9626V76.5876C104 78.7126 103.379 81.2126 102.233 84.0876C101.075 86.9626 99.4667 89.2876 97.4167 91.0876C97.1125 91.3376 96.8333 91.4626 96.5958 91.4626C96.4708 91.4626 96.3458 91.4626 96.2208 91.4126C95.8458 91.2293 95.775 90.9126 95.9542 90.4126C98.2042 85.1626 99.3125 81.4835 99.3125 79.4126C99.3125 78.7876 99.1875 78.2876 98.95 77.9793C98.3458 77.2876 96.6583 76.9085 93.85 76.9085C92.8375 76.9085 91.6292 76.9751 90.225 77.1001C88.7125 77.2876 87.3083 77.4751 86.0583 77.6626C85.6833 77.6626 85.4417 77.6043 85.3083 77.4793C85.1833 77.3543 85.1583 77.2835 85.225 77.1585C85.225 77.0876 85.25 77.0335 85.3083 76.896V76.646L85.3542 76.6293Z" fill="#AAAAAA"/>
</g>
<defs>
<filter id="filter0_d_9_19" x="0" y="0" width="108" height="108" filterUnits="userSpaceOnUse" color-interpolation-filters="sRGB">
<feFlood flood-opacity="0" result="BackgroundImageFix"/>
<feColorMatrix in="SourceAlpha" type="matrix" values="0 0 0 0 0 0 0 0 0 0 0 0 0 0 0 0 0 0 127 0" result="hardAlpha"/>
<feOffset dy="4"/>
<feGaussianBlur stdDeviation="2"/>
<feComposite in2="hardAlpha" operator="out"/>
<feColorMatrix type="matrix" values="0 0 0 0 0 0 0 0 0 0 0 0 0 0 0 0 0 0 0.25 0"/>
<feBlend mode="normal" in2="BackgroundImageFix" result="effect1_dropShadow_9_19"/>
<feBlend mode="normal" in="SourceGraphic" in2="effect1_dropShadow_9_19" result="shape"/>
</filter>
<clipPath id="clip0_9_19">
<rect width="100" height="100" fill="white" transform="translate(4)"/>
</clipPath>
</defs>
</svg>
