<svg width="100" height="108" viewBox="0 0 100 108" fill="none" xmlns="http://www.w3.org/2000/svg">
<g clip-path="url(#clip0_9_21)" filter="url(#filter0_d_9_21)">
<path d="M50.6331 28.7333C46.6831 28.7333 40.5706 24.2417 34.1331 24.4C25.6331 24.5125 17.8414 29.3292 13.4622 36.9583C4.64139 52.2708 11.1872 74.8875 19.7914 87.3333C24.0122 93.3917 28.9914 100.208 35.5914 99.9958C41.9247 99.725 44.2997 95.8833 51.9872 95.8833C59.6164 95.8833 61.7789 99.9958 68.4872 99.8333C75.3081 99.725 79.6372 93.6667 83.8039 87.55C88.6206 80.5167 90.6206 73.6958 90.7289 73.3208C90.5664 73.2667 77.4706 68.2333 77.3122 53.0833C77.2039 40.4167 87.6456 34.3583 88.1331 34.0875C82.1789 25.3792 73.0372 24.4042 69.8414 24.1875C61.5081 23.5375 54.5289 28.7333 50.6331 28.7333ZM64.7081 15.9583C68.2206 11.7417 70.5414 5.84583 69.8956 0C64.8664 0.216667 58.8039 3.35417 55.1789 7.575C51.9289 11.3083 49.1206 17.3167 49.8747 23.05C55.4497 23.4833 61.1872 20.1833 64.7039 15.9625" fill="#AAAAAA"/>
</g>
<defs>
<filter id="filter0_d_9_21" x="-4" y="0" width="108" height="108" filterUnits="userSpaceOnUse" color-interpolation-filters="sRGB">
<feFlood flood-opacity="0" result="BackgroundImageFix"/>
<feColorMatrix in="SourceAlpha" type="matrix" values="0 0 0 0 0 0 0 0 0 0 0 0 0 0 0 0 0 0 127 0" result="hardAlpha"/>
<feOffset dy="4"/>
<feGaussianBlur stdDeviation="2"/>
<feComposite in2="hardAlpha" operator="out"/>
<feColorMatrix type="matrix" values="0 0 0 0 0 0 0 0 0 0 0 0 0 0 0 0 0 0 0.25 0"/>
<feBlend mode="normal" in2="BackgroundImageFix" result="effect1_dropShadow_9_21"/>
<feBlend mode="normal" in="SourceGraphic" in2="effect1_dropShadow_9_21" result="shape"/>
</filter>
<clipPath id="clip0_9_21">
<rect width="100" height="100" fill="white"/>
</clipPath>
</defs>
</svg>
