<svg width="688" height="688" viewBox="0 0 688 688" fill="none" xmlns="http://www.w3.org/2000/svg">
<path d="M337.096 433.811L321.063 426.322L328.819 409.681L344.88 417.137L337.096 433.811Z" fill="#F8DF2C"/>
<path d="M394.502 335.402L393.904 328.453C393.515 323.903 392.359 316.508 391.325 312.001L390.098 306.644C389.091 302.197 387.031 294.965 385.535 290.637L385.14 289.517C383.635 285.197 380.711 278.325 378.622 274.261L378.139 273.4C376.05 269.317 371.917 263.142 368.926 259.666L363.687 253.571C360.694 250.024 355.249 244.989 351.567 242.234L350.969 241.841C347.25 239.087 340.701 235.637 336.388 234.107L330.383 231.988C326.092 230.463 318.875 228.425 314.375 227.434L313.361 227.183C308.848 226.18 302.463 223.965 299.1 222.294C295.75 220.619 290.558 217.195 287.594 214.641C284.61 212.062 280.667 207.467 278.781 204.373C276.896 201.294 274.745 196.693 273.904 194.159C273.075 191.6 271.574 188.93 270.438 188.205C269.323 187.452 267.081 184.304 265.46 181.153C263.84 178 260.852 174.356 258.77 173.007C256.759 171.708 254.635 170.114 254.113 169.526C253.571 168.963 251.584 168.833 249.731 169.23C247.792 169.627 244.814 172.099 243.043 174.72C241.267 177.368 239.443 181.77 238.99 184.555C238.584 187.34 238.41 190.45 238.645 191.473C238.887 192.471 238.75 193.634 238.302 194.025C237.88 194.41 238.163 195.8 238.954 197.115C239.733 198.361 240.199 199.904 239.937 200.384C239.704 200.915 240.327 202.613 241.332 204.138C242.37 205.638 244.011 207.829 244.987 208.97C245.985 210.109 247.594 211.849 248.615 212.782C249.624 213.766 252.858 216.345 255.898 218.523C258.936 220.747 263.39 224.604 265.857 227.169C268.287 229.701 272.646 234.591 275.469 237.998C278.311 241.417 281.501 245.916 282.583 247.992C283.632 250.066 285.202 255.412 286.043 259.921L286.536 262.399C287.37 266.933 289.112 274.194 290.428 278.583L291.325 281.619C292.649 286.007 294.873 293.16 296.286 297.535L298.683 305.085C300.082 309.42 301.838 316.721 302.549 321.255L303.024 324.051C303.75 328.572 304.481 336.023 304.605 340.634L304.897 350.417C305.069 355.016 304.502 362.427 303.685 366.923L302.01 375.911C301.14 380.402 298.391 390.469 296.727 394.716L288.966 411.352L305.006 418.846L312.798 402.154L328.861 409.59L336.388 393.37L320.367 385.921L328.114 369.24L344.141 376.736L336.584 393.02L352.635 400.476L344.881 417.137L360.932 424.615L353.173 441.265L369.21 448.735L376.971 432.087L379.456 426.466C381.386 422.326 383.898 415.267 385.077 410.83L390.372 390.993C391.544 386.583 392.917 379.23 393.432 374.671L393.811 371.48C394.287 366.955 394.839 359.441 394.944 354.841L395.024 352.054C395.119 347.491 394.915 339.965 394.502 335.402Z" fill="#F8DF2C"/>
<path d="M297.617 476.582L281.586 469.088L289.358 452.414L305.416 459.896L297.617 476.582Z" fill="#C7DE17"/>
<path d="M322.07 508.141L305.999 500.658L313.758 483.986L329.811 491.482L322.07 508.141Z" fill="#C7DE17"/>
<path d="M353.559 481.722L337.52 474.228L345.279 457.529L361.332 465.035L353.559 481.722Z" fill="#E2E815"/>
<path d="M242.303 511.496L258.369 518.965L266.115 502.28L250.077 494.797L242.303 511.496Z" fill="#7FCC2B"/>
<path d="M289.357 452.414L273.306 444.998L281.06 428.284L297.144 435.765L289.357 452.414Z" fill="#D4E415"/>
<path d="M313.189 443.235L297.145 435.765L304.885 419.093L320.955 426.576L313.189 443.235Z" fill="#F8DF2C"/>
<path d="M273.881 485.605L257.835 478.149L265.604 461.476L281.647 468.957L273.881 485.605Z" fill="#ADDA20"/>
<path d="M298.244 517.242L282.167 509.774L289.946 493.075L305.997 500.594L298.244 517.242Z" fill="#A4D623"/>
<path d="M345.287 458.211L329.234 450.724L336.993 434.043L353.059 441.512L345.287 458.211Z" fill="#F8DF2C"/>
<path d="M321.707 467.389L305.636 459.893L313.395 443.234L329.448 450.722L321.707 467.389Z" fill="#D4E317"/>
<path d="M244.677 411.44C244.677 414.855 243.472 417.813 241.104 420.352L238.367 423.26C236.03 425.724 233.263 426.967 230.025 426.967H229.688L209.7 426.46C207.897 426.435 207 425.532 207 423.769V375.636C207 373.833 207.897 372.932 209.7 372.932H230.522C234.032 372.932 236.97 374.176 239.331 376.602L240.474 377.769C242.9 380.269 244.107 383.216 244.107 386.644V388.117C244.107 391.557 242.874 394.49 240.436 396.928L239.001 398.363L240.938 400.192C243.434 402.565 244.677 405.46 244.677 408.976V411.44ZM230.025 407.707C230.025 405.675 229.023 404.673 226.991 404.673H221.95C221.049 404.673 220.613 405.142 220.613 406.043V413.407C220.613 414.246 221.049 414.714 221.95 414.779L226.923 415.109H227.289C229.125 415.109 230.025 414.144 230.025 412.176V407.707ZM230.025 388.815C230.025 386.821 229.023 385.819 226.991 385.779L222.186 385.716H222.154C221.279 385.716 220.845 386.173 220.808 387.075L220.681 394.326V394.389C220.681 395.289 221.049 395.723 221.816 395.723C221.914 395.723 222.013 395.723 222.116 395.696L227.054 395.06C229.023 394.833 230.025 393.728 230.025 391.824V388.815Z" fill="#293037"/>
<path d="M294.777 423.323C294.91 423.792 294.979 424.225 294.979 424.594C294.979 425.9 294.206 426.536 292.643 426.536H282.397C281.426 426.536 280.689 426.066 280.187 425.088L277.625 420.022L264.909 418.181L262.337 424.695C261.842 425.938 260.929 426.536 259.608 426.536H251.089C249.717 426.536 249.057 425.964 249.057 424.821C249.057 424.39 249.147 423.855 249.351 423.222L265.106 373.935C265.537 372.627 266.407 372.004 267.744 372.004H279.224C280.595 372.004 281.426 372.665 281.788 373.997L294.777 423.323ZM272.278 397.625C272.089 396.991 271.683 396.661 271.047 396.661C270.344 396.661 269.91 397.029 269.676 397.766L266.476 407.871C266.407 408.113 266.375 408.317 266.375 408.481C266.375 409.18 266.813 409.548 267.714 409.649L273.313 410.209C273.511 410.246 273.713 410.246 273.917 410.246C275.116 410.246 275.719 409.815 275.719 408.913C275.719 408.711 275.688 408.507 275.655 408.277L272.278 397.625Z" fill="#293037"/>
<path d="M303.956 426.535C302.388 426.535 301.588 425.723 301.588 424.162V375.04C301.588 373.236 302.496 372.336 304.292 372.336H311.104C312.201 372.336 313.136 372.805 313.903 373.744L325.723 388.459L326.485 374.175C326.588 372.626 327.386 371.865 328.891 371.865H333.589C335.163 371.865 335.963 372.664 335.963 374.238V423.436C335.963 424.999 335.493 425.761 334.593 425.761H328.961C327.527 425.761 326.485 425.189 325.857 424.084L315.04 405.409L313.073 424.301C312.907 425.799 312.069 426.535 310.571 426.535H303.956Z" fill="#293037"/>
<path d="M388.167 423.323C388.294 423.792 388.369 424.225 388.369 424.594C388.369 425.9 387.597 426.536 386.034 426.536H375.789C374.822 426.536 374.087 426.066 373.593 425.088L371.015 420.022L358.296 418.181L355.731 424.695C355.224 425.938 354.322 426.536 352.99 426.536H344.483C343.111 426.536 342.445 425.964 342.445 424.821C342.445 424.39 342.554 423.855 342.743 423.222L358.5 373.935C358.931 372.627 359.794 372.004 361.139 372.004H372.614C373.986 372.004 374.822 372.665 375.194 373.997L388.167 423.323ZM365.669 397.625C365.467 396.991 365.074 396.661 364.438 396.661C363.727 396.661 363.296 397.029 363.066 397.766L359.863 407.871C359.794 408.113 359.771 408.317 359.771 408.481C359.771 409.18 360.2 409.548 361.103 409.649L366.698 410.209C366.915 410.246 367.104 410.246 367.306 410.246C368.501 410.246 369.109 409.815 369.109 408.913C369.109 408.711 369.071 408.507 369.046 408.277L365.669 397.625Z" fill="#293037"/>
<path d="M397.347 426.535C395.786 426.535 394.984 425.723 394.984 424.162V375.04C394.984 373.236 395.885 372.336 397.688 372.336H404.496C405.586 372.336 406.526 372.805 407.288 373.744L419.108 388.459L419.883 374.175C419.984 372.626 420.773 371.865 422.281 371.865H426.98C428.554 371.865 429.353 372.664 429.353 374.238V423.436C429.353 424.999 428.896 425.761 427.983 425.761H422.346C420.912 425.761 419.883 425.189 419.247 424.084L408.431 405.409L406.463 424.301C406.285 425.799 405.46 426.535 403.949 426.535H397.347Z" fill="#293037"/>
<path d="M481.555 423.323C481.694 423.792 481.757 424.225 481.757 424.594C481.757 425.9 480.996 426.536 479.434 426.536H469.177C468.21 426.536 467.473 426.066 466.993 425.088L464.416 420.022L451.686 418.181L449.108 424.695C448.628 425.938 447.726 426.536 446.381 426.536H437.873C436.501 426.536 435.842 425.964 435.842 424.821C435.842 424.39 435.943 423.855 436.135 423.222L451.89 373.935C452.335 372.627 453.198 372.004 454.53 372.004H466.015C467.385 372.004 468.21 372.665 468.58 373.997L481.555 423.323ZM459.07 397.625C458.867 396.991 458.467 396.661 457.831 396.661C457.12 396.661 456.691 397.029 456.462 397.766L453.261 407.871C453.198 408.113 453.16 408.317 453.16 408.481C453.16 409.18 453.592 409.548 454.494 409.649L460.111 410.209C460.302 410.246 460.504 410.246 460.707 410.246C461.9 410.246 462.51 409.815 462.51 408.913C462.51 408.711 462.474 408.507 462.447 408.277L459.07 397.625Z" fill="#293037"/>
<path d="M208.937 358.636H208.632C207.744 358.572 207 357.823 207 356.858V308.409C207 307.445 207.813 306.62 208.785 306.62H209.013H218.523C232.857 306.62 244.524 318.365 244.524 332.71C244.524 347.044 232.857 358.636 218.523 358.636H208.937ZM218.523 355.004C230.852 355.004 240.887 345.037 240.887 332.71C240.887 320.292 230.852 310.338 218.523 310.262H210.637V355.004H218.523Z" fill="#293037"/>
<path d="M257.234 308.41C257.234 307.444 258.046 306.619 259.01 306.619C260.052 306.619 260.864 307.444 260.864 308.41V356.859C260.864 357.822 260.052 358.636 259.01 358.636C258.046 358.636 257.234 357.822 257.234 356.859V308.41Z" fill="#293037"/>
<path d="M303.671 335.224C302.629 335.224 301.817 334.487 301.817 333.446C301.817 332.405 302.629 331.592 303.671 331.592H319.725H319.947C320.843 331.668 321.579 332.48 321.579 333.446V351.284V351.576C321.503 352.098 321.287 352.63 320.918 352.923C316.309 356.554 310.508 358.635 304.122 358.635C289.177 358.572 277.077 346.903 277.077 332.188C277.077 317.691 289.177 305.883 304.122 305.883C310.584 305.883 316.309 308.105 320.989 311.747C321.655 312.269 321.884 313.527 321.211 314.287C320.613 315.025 319.503 315.162 318.608 314.567C314.823 311.444 309.688 309.526 304.122 309.526C291.107 309.526 280.716 319.709 280.716 332.188C280.716 344.822 291.107 355.004 304.122 355.004C309.167 355.004 313.998 353.367 317.864 350.535V335.224H303.671Z" fill="#293037"/>
<path d="M340.381 308.41C340.381 307.444 341.193 306.619 342.159 306.619C343.2 306.619 344.02 307.444 344.02 308.41V356.859C344.02 357.822 343.2 358.636 342.159 358.636C341.193 358.636 340.381 357.822 340.381 356.859V308.41Z" fill="#293037"/>
<path d="M375.966 310.263H360.289C359.323 310.263 358.499 309.451 358.499 308.409C358.499 307.444 359.323 306.619 360.289 306.619H395.214C396.18 306.619 396.99 307.444 396.99 308.409C396.99 309.451 396.18 310.263 395.214 310.263H379.535V356.858C379.535 357.824 378.721 358.636 377.757 358.636C376.779 358.636 375.966 357.824 375.966 356.858V310.263Z" fill="#293037"/>
<path d="M432.072 345.19H408.366L403.758 357.455C403.466 358.191 402.793 358.635 402.044 358.635C401.892 358.635 401.6 358.572 401.37 358.572C400.482 358.191 399.963 357.087 400.343 356.184L418.398 307.952C418.69 307.291 419.437 306.847 420.174 306.847C420.999 306.847 421.735 307.291 421.964 307.952L440.019 356.184C440.385 357.087 439.941 358.191 439.053 358.572C438.761 358.572 438.609 358.635 438.394 358.635C437.709 358.635 436.972 358.191 436.68 357.455L432.072 345.19ZM409.7 341.546H430.725L420.25 313.614L409.7 341.546Z" fill="#293037"/>
<path d="M453.54 358.636H453.387C452.423 358.636 451.611 357.823 451.611 356.858V308.409C451.611 307.445 452.423 306.62 453.387 306.62C454.428 306.62 455.241 307.445 455.241 308.409V355.004H480.145C481.186 355.004 482 355.816 482 356.858C482 357.823 481.186 358.636 480.145 358.636H453.54Z" fill="#293037"/>
</svg>
