<svg width="1920" height="1080" viewBox="0 0 1920 1080" fill="none" xmlns="http://www.w3.org/2000/svg">
<g clip-path="url(#clip0_1_3)">
<g filter="url(#filter0_f_1_3)">
<path d="M2196 210C2196 427.6 2019.6 604 1802 604C1584.4 604 1227 512.6 1227 295C1227 77.3998 1584.4 -184 1802 -184C2019.6 -184 2196 -7.60019 2196 210Z" fill="url(#paint0_linear_1_3)"/>
</g>
<g filter="url(#filter1_f_1_3)">
<path d="M2405.03 629.282C2375.31 779.033 2235.21 877.406 2092.11 849.003C1949.01 820.6 1592.6 484.899 1622.32 335.148C1652.04 185.397 1792.14 87.0249 1935.24 115.428C2078.34 143.83 2434.76 479.531 2405.03 629.282Z" fill="url(#paint1_linear_1_3)"/>
</g>
<g filter="url(#filter2_f_1_3)">
<path d="M1431.17 -460.563C1576.29 -474.611 1705.33 -368.353 1719.38 -223.228C1733.42 -78.1036 1526.34 358.578 1381.22 372.627C1236.09 386.676 1107.06 280.418 1093.01 135.293C1078.96 -9.83177 1286.04 -446.514 1431.17 -460.563Z" fill="url(#paint2_linear_1_3)"/>
</g>
<g filter="url(#filter3_f_1_3)">
<path d="M154.167 -460.563C299.292 -474.611 428.327 -368.353 442.376 -223.228C456.425 -78.1035 249.34 358.578 104.215 372.627C-40.9093 386.676 -169.945 280.418 -183.994 135.293C-198.042 -9.83178 9.04203 -446.514 154.167 -460.563Z" fill="url(#paint3_linear_1_3)"/>
</g>
</g>
<defs>
<filter id="filter0_f_1_3" x="1128" y="-283" width="1167" height="986" filterUnits="userSpaceOnUse" color-interpolation-filters="sRGB">
<feFlood flood-opacity="0" result="BackgroundImageFix"/>
<feBlend mode="normal" in="SourceGraphic" in2="BackgroundImageFix" result="shape"/>
<feGaussianBlur stdDeviation="49.5" result="effect1_foregroundBlur_1_3"/>
</filter>
<filter id="filter1_f_1_3" x="1220.57" y="-289.457" width="1586.22" height="1543.34" filterUnits="userSpaceOnUse" color-interpolation-filters="sRGB">
<feFlood flood-opacity="0" result="BackgroundImageFix"/>
<feBlend mode="normal" in="SourceGraphic" in2="BackgroundImageFix" result="shape"/>
<feGaussianBlur stdDeviation="200" result="effect1_foregroundBlur_1_3"/>
</filter>
<filter id="filter2_f_1_3" x="993.328" y="-560.81" width="825.727" height="1033.68" filterUnits="userSpaceOnUse" color-interpolation-filters="sRGB">
<feFlood flood-opacity="0" result="BackgroundImageFix"/>
<feBlend mode="normal" in="SourceGraphic" in2="BackgroundImageFix" result="shape"/>
<feGaussianBlur stdDeviation="49.5" result="effect1_foregroundBlur_1_3"/>
</filter>
<filter id="filter3_f_1_3" x="-283.672" y="-560.81" width="825.727" height="1033.68" filterUnits="userSpaceOnUse" color-interpolation-filters="sRGB">
<feFlood flood-opacity="0" result="BackgroundImageFix"/>
<feBlend mode="normal" in="SourceGraphic" in2="BackgroundImageFix" result="shape"/>
<feGaussianBlur stdDeviation="49.5" result="effect1_foregroundBlur_1_3"/>
</filter>
<linearGradient id="paint0_linear_1_3" x1="1802" y1="-184" x2="1802" y2="604" gradientUnits="userSpaceOnUse">
<stop stop-color="#30B5D2"/>
<stop offset="1" stop-color="#C329BD" stop-opacity="0"/>
<stop offset="1" stop-color="#D9D9D9" stop-opacity="0"/>
</linearGradient>
<linearGradient id="paint1_linear_1_3" x1="1393.67" y1="-116.433" x2="1545.61" y2="1065.76" gradientUnits="userSpaceOnUse">
<stop stop-color="#F766B4"/>
<stop offset="1" stop-color="#841CED" stop-opacity="0"/>
</linearGradient>
<linearGradient id="paint2_linear_1_3" x1="1032.55" y1="719.838" x2="1558.09" y2="668.963" gradientUnits="userSpaceOnUse">
<stop stop-color="#F76666"/>
<stop offset="1" stop-color="#841CED" stop-opacity="0"/>
</linearGradient>
<linearGradient id="paint3_linear_1_3" x1="-244.452" y1="719.838" x2="281.092" y2="668.963" gradientUnits="userSpaceOnUse">
<stop stop-color="#F76666"/>
<stop offset="1" stop-color="#841CED" stop-opacity="0"/>
</linearGradient>
<clipPath id="clip0_1_3">
<rect width="1920" height="1080" fill="white"/>
</clipPath>
</defs>
</svg>
