<svg width="108" height="108" viewBox="0 0 108 108" fill="none" xmlns="http://www.w3.org/2000/svg">
<g clip-path="url(#clip0_9_13)" filter="url(#filter0_d_9_13)">
<path d="M35.3708 36.4708H32.4333V40.3917H35.375C36.9417 40.3917 37.7292 39.6083 37.7292 38.4292C37.725 37.0583 36.7458 36.4708 35.3708 36.4708ZM22.0375 37.6458C22.0375 36.6667 21.2542 36.275 20.075 36.275H17.1375V39.2167H19.8833C21.2542 39.0208 22.0375 38.6292 22.0375 37.6458ZM47.9208 42.3542H51.45L49.6875 37.8417L47.9208 42.3542ZM20.4708 42.3542H16.9417V45.2958H20.4708C21.8417 45.2958 22.6292 44.7083 22.6292 43.7292C22.6292 42.75 21.8417 42.3542 20.4708 42.3542ZM4 0V100H104V0H4ZM39.1 12.55H53.4125V16.4708H48.5125V28.825H44V16.4708H39.1V12.55ZM38.1167 12.55V16.275H29.4917V18.825H37.3333V22.3542H29.4917V24.9042H38.3167V28.825H25.175L24.9792 12.55H38.1167ZM27.1375 44.3125C27.1375 47.0583 24.7833 48.8208 21.0583 48.8208H12.6292V32.55H21.0583C23.0208 32.55 24.5875 33.1375 25.5667 33.9208C26.1583 34.5083 26.55 35.4917 26.55 36.6667C26.55 38.6292 25.5708 39.6083 24 40.3917C25.9625 40.9792 27.1375 42.1583 27.1375 44.3125ZM15.175 23.5292C15.9583 24.5083 16.7417 25.0958 17.725 25.0958C18.9 25.0958 19.4917 24.3125 19.4917 22.7417V12.3542H24V22.7458C24 24.7083 23.4125 26.275 22.4333 27.2542C21.4542 28.2333 19.8833 28.825 17.9208 28.825C14.9792 29.0208 13.4125 27.8417 12.2375 26.275L15.175 23.5292ZM50.0792 87.45H12.6292V81.175H50.0792V87.45ZM53.8042 49.0208L52.6292 46.0792H46.3542L45.1792 49.0208H40.4708L40.5542 48.825H37.725L34.3917 43.925H32.4333V48.825H27.9208V32.55H35.5667C38.1167 32.55 39.6833 33.1375 40.8625 34.3167C41.8417 35.2958 42.2333 36.475 42.2333 38.0417C42.2333 40.5917 40.8625 42.1583 38.9 43.1417L41.4208 46.8L47.525 32.5542H51.8375L58.7 49.025L53.8042 49.0208ZM63.8042 48.825H59.2958V32.55H63.8042V48.825ZM80.275 48.825H76.3542L69.4917 40V49.0208H64.9833V32.55H69.1L75.7667 41.1792V32.55H80.275V48.825ZM88.3125 49.0208C86.9324 49.1278 85.5448 48.9573 84.2316 48.5193C82.9184 48.0813 81.7063 47.3848 80.6667 46.4708L83.2167 43.5292C84.7833 44.9 86.55 45.4917 88.5125 45.4917C89.6875 45.4917 90.475 45.1 90.475 44.3167C90.475 43.5333 89.8875 43.3375 87.7292 42.75C84.2 41.9667 81.65 40.9833 81.65 37.65C81.65 34.7083 84.0042 32.3542 87.925 32.3542C90.6708 32.3542 92.825 33.1375 94.5917 34.5125L92.2375 37.65C90.6667 36.6667 89.1 36.0792 87.725 36.0792C86.55 36.0792 86.1583 36.4708 86.1583 37.0583C86.1583 37.8417 86.7458 38.0375 88.9042 38.625C92.6292 39.4083 94.9833 40.5875 94.9833 43.725C94.9792 47.0583 92.4333 49.0208 88.3125 49.0208Z" fill="#AAAAAA"/>
</g>
<defs>
<filter id="filter0_d_9_13" x="0" y="0" width="108" height="108" filterUnits="userSpaceOnUse" color-interpolation-filters="sRGB">
<feFlood flood-opacity="0" result="BackgroundImageFix"/>
<feColorMatrix in="SourceAlpha" type="matrix" values="0 0 0 0 0 0 0 0 0 0 0 0 0 0 0 0 0 0 127 0" result="hardAlpha"/>
<feOffset dy="4"/>
<feGaussianBlur stdDeviation="2"/>
<feComposite in2="hardAlpha" operator="out"/>
<feColorMatrix type="matrix" values="0 0 0 0 0 0 0 0 0 0 0 0 0 0 0 0 0 0 0.25 0"/>
<feBlend mode="normal" in2="BackgroundImageFix" result="effect1_dropShadow_9_13"/>
<feBlend mode="normal" in="SourceGraphic" in2="effect1_dropShadow_9_13" result="shape"/>
</filter>
<clipPath id="clip0_9_13">
<rect width="100" height="100" fill="white" transform="translate(4)"/>
</clipPath>
</defs>
</svg>
