<svg width="108" height="100" viewBox="0 0 108 100" fill="none" xmlns="http://www.w3.org/2000/svg">
<g filter="url(#filter0_d_9_17)">
<path d="M32.8125 16.7913C24.6125 16.7913 17.4667 22.1246 12.5167 29.7621C6.93333 38.3663 4 49.5121 4 60.2038C4 63.1454 4.29167 65.9079 4.875 68.4246C5.1614 69.6427 5.53031 70.8399 5.97917 72.0079C6.40902 73.1044 6.92595 74.1648 7.525 75.1788C10.425 80.0079 15.1 83.2079 22.4958 83.2079C28.7333 83.2079 33.4667 80.4121 39.0167 73.0246C42.1833 68.8079 43.7833 66.2496 50.1125 55.0246L53.2625 49.4454L54.0375 48.0913C54.2917 48.5079 54.5417 48.9079 54.8 49.3413L63.7667 64.3204C66.7833 69.3621 70.7042 74.9704 74.0583 78.1288C78.4167 82.2413 82.3583 83.2121 86.8083 83.2121C91.2875 83.2121 94.625 81.7329 97.0375 79.6996C98.3845 78.5497 99.5259 77.1787 100.412 75.6454C102.671 71.7329 104 66.7829 104 60.0413C104 48.7079 101.162 37.7204 95.3167 28.9996C89.975 21.0329 82.9958 16.7913 75.6667 16.7913C71.3042 16.7913 66.9667 18.7371 62.9458 22.2413C60.2292 24.6163 57.7083 27.6163 55.3625 30.7829C52.4875 27.1371 49.8 24.3371 47.2042 22.2163C42.2792 18.1913 37.5583 16.7871 32.8125 16.7871V16.7913ZM75.1458 25.3454C79.925 25.3454 84.2625 28.5038 87.6125 33.6746C92.3292 40.9579 94.475 51.1538 94.475 60.3413C94.475 66.7913 92.9417 72.4246 86.8125 72.4246C84.3958 72.4246 82.5333 71.4663 79.8792 68.2413C77.8125 65.7371 74.2833 60.4163 68.0792 50.0829L65.5083 45.7996C63.8374 43.0046 62.0937 40.2536 60.2792 37.5496C60.5708 37.0954 60.8667 36.6163 61.1583 36.1871C65.825 29.2413 69.9792 25.3454 75.1458 25.3454ZM32.6417 27.6496C37.9125 27.6496 41.2167 30.9454 43.7875 33.6746C45.0667 35.0371 46.8583 37.3038 48.9292 40.2538L44.6792 46.7788C41.525 51.6246 36.8375 59.3496 32.8583 64.8538C27.8958 71.7246 25.3167 72.4246 22.5 72.4246C20.3167 72.4246 18.175 71.4371 16.7375 69.1163C15.6417 67.3413 14.8042 64.4079 14.8042 60.5913C14.8042 51.3371 17.4292 41.6954 21.7208 35.2246C23.6125 32.3621 25.7375 30.1163 28.1083 28.8371C29.4955 28.0663 31.0547 27.6578 32.6417 27.6496Z" fill="#AAAAAA"/>
</g>
<defs>
<filter id="filter0_d_9_17" x="0" y="0" width="108" height="108" filterUnits="userSpaceOnUse" color-interpolation-filters="sRGB">
<feFlood flood-opacity="0" result="BackgroundImageFix"/>
<feColorMatrix in="SourceAlpha" type="matrix" values="0 0 0 0 0 0 0 0 0 0 0 0 0 0 0 0 0 0 127 0" result="hardAlpha"/>
<feOffset dy="4"/>
<feGaussianBlur stdDeviation="2"/>
<feComposite in2="hardAlpha" operator="out"/>
<feColorMatrix type="matrix" values="0 0 0 0 0 0 0 0 0 0 0 0 0 0 0 0 0 0 0.25 0"/>
<feBlend mode="normal" in2="BackgroundImageFix" result="effect1_dropShadow_9_17"/>
<feBlend mode="normal" in="SourceGraphic" in2="effect1_dropShadow_9_17" result="shape"/>
</filter>
</defs>
</svg>
