<svg width="108" height="100" viewBox="0 0 108 100" fill="none" xmlns="http://www.w3.org/2000/svg">
<g filter="url(#filter0_d_9_28)">
<path d="M4 33.208V53.8663C4 61.6455 9.425 66.7872 16.5 66.7872C19.9417 66.7872 23.0083 65.4705 25.225 63.1622V66.2288H30.125V33.208H25.175V53.5747C25.175 58.8122 21.6333 62.3497 17.0625 62.3497C12.4375 62.3497 8.95417 58.9038 8.95417 53.5747V33.2122H4V33.208ZM35 33.208V66.2288H39.7083V63.208C41.8792 65.4247 44.9458 66.7913 48.2917 66.7913C49.9477 66.8068 51.5903 66.4936 53.1245 65.8701C54.6587 65.2465 56.054 64.3249 57.2296 63.1585C58.4053 61.9921 59.338 60.6042 59.9737 59.075C60.6094 57.5458 60.9356 55.9057 60.9333 54.2497C60.9411 52.5897 60.6193 50.9447 59.9864 49.41C59.3536 47.8753 58.4225 46.4816 57.2469 45.3095C56.0714 44.1374 54.6748 43.2104 53.1383 42.5822C51.6018 41.9539 49.9558 41.637 48.2958 41.6497C46.7054 41.6477 45.1306 41.9641 43.6643 42.5802C42.1981 43.1963 40.87 44.0997 39.7583 45.2372V33.2122H34.9958L35 33.208ZM76.1208 41.6997C69.0917 41.6997 63.7667 47.408 63.7667 54.1997C63.7667 61.3663 69.325 66.7413 76.5417 66.7413C80.9292 66.7413 84.5125 64.8122 86.9167 61.6038L83.475 59.058C81.6833 61.4622 79.325 62.5872 76.5417 62.5872C72.4875 62.5872 69.2375 59.6705 68.575 55.7538H88.1458V54.1997C88.1458 47.033 83.0542 41.6997 76.1208 41.6997ZM102.35 41.983C99.7083 41.983 97.775 43.208 96.5958 45.1413V42.1705H91.8833V66.2288H96.6417V52.5413C96.6417 48.8163 98.9083 46.4163 102.021 46.4163H104V41.9788H102.35V41.983ZM76.0208 45.8497C79.5625 45.8497 82.5375 48.2997 83.3375 51.9747H68.6667C69.5125 48.2997 72.4833 45.8497 76.0208 45.8497ZM47.9708 45.8997C52.4958 45.8997 56.2208 49.5788 56.2208 54.2497C56.2297 56.4485 55.3661 58.5611 53.8196 60.1241C52.273 61.6871 50.1696 62.5728 47.9708 62.5872C46.8769 62.5894 45.7933 62.375 44.7826 61.9564C43.7719 61.5378 42.8541 60.9232 42.0821 60.1481C41.3101 59.373 40.6993 58.4527 40.2847 57.4404C39.8701 56.428 39.6601 55.3436 39.6667 54.2497C39.659 53.1552 39.868 52.07 40.2818 51.0567C40.6956 50.0435 41.3058 49.1221 42.0775 48.3459C42.8491 47.5696 43.7667 46.9538 44.7775 46.534C45.7883 46.1141 46.8722 45.8985 47.9667 45.8997H47.9708Z" fill="#AAAAAA"/>
</g>
<defs>
<filter id="filter0_d_9_28" x="0" y="0" width="108" height="108" filterUnits="userSpaceOnUse" color-interpolation-filters="sRGB">
<feFlood flood-opacity="0" result="BackgroundImageFix"/>
<feColorMatrix in="SourceAlpha" type="matrix" values="0 0 0 0 0 0 0 0 0 0 0 0 0 0 0 0 0 0 127 0" result="hardAlpha"/>
<feOffset dy="4"/>
<feGaussianBlur stdDeviation="2"/>
<feComposite in2="hardAlpha" operator="out"/>
<feColorMatrix type="matrix" values="0 0 0 0 0 0 0 0 0 0 0 0 0 0 0 0 0 0 0.25 0"/>
<feBlend mode="normal" in2="BackgroundImageFix" result="effect1_dropShadow_9_28"/>
<feBlend mode="normal" in="SourceGraphic" in2="effect1_dropShadow_9_28" result="shape"/>
</filter>
</defs>
</svg>
