<svg width="688" height="688" viewBox="0 0 688 688" fill="none" xmlns="http://www.w3.org/2000/svg">
<path fill-rule="evenodd" clip-rule="evenodd" d="M344 202C265.545 202 202 265.545 202 344C202 406.835 242.647 459.908 299.092 478.723C306.192 479.965 308.855 475.705 308.855 471.978C308.855 468.605 308.678 457.423 308.678 445.53C273 452.098 263.77 436.832 260.93 428.845C259.332 424.762 252.41 412.16 246.375 408.787C241.405 406.125 234.305 399.557 246.198 399.38C257.38 399.202 265.368 409.675 268.03 413.935C280.81 435.412 301.223 429.378 309.388 425.65C310.63 416.42 314.357 410.207 318.44 406.657C286.845 403.107 253.83 390.86 253.83 336.545C253.83 321.102 259.333 308.322 268.385 298.382C266.965 294.832 261.995 280.277 269.805 260.752C269.805 260.752 281.698 257.025 308.855 275.308C320.215 272.113 332.285 270.515 344.355 270.515C356.425 270.515 368.495 272.113 379.855 275.308C407.013 256.848 418.905 260.752 418.905 260.752C426.715 280.277 421.745 294.832 420.325 298.382C429.378 308.322 434.88 320.925 434.88 336.545C434.88 391.037 401.688 403.107 370.093 406.657C375.24 411.095 379.678 419.615 379.678 432.928C379.678 451.92 379.5 467.185 379.5 471.978C379.5 475.705 382.163 480.143 389.263 478.723C445.353 459.908 486 406.657 486 344C486 265.545 422.455 202 344 202Z" fill="#1B1F23"/>
</svg>
