<svg width="100" height="100" viewBox="0 0 100 100" fill="none" xmlns="http://www.w3.org/2000/svg">
<rect width="100" height="100" rx="20" fill="#5868B1"/>
<path d="M22.7371 42.1833L23.2343 42.9232C22.24 42.8939 21.1989 42.7974 21 42.3705C21 42.35 21.0058 42.3295 21.0117 42.309C21.5674 42.1628 22.044 42.154 22.7371 42.1833ZM28.0188 44.4351L28.2586 45.1663L27.6971 45.1897L27.8316 44.441C27.8941 44.441 27.9566 44.441 28.0188 44.4351ZM29.9314 49.7723C29.4342 50.2286 29.0511 50.5327 28.7557 51.2258C28.3463 50.8895 28.1328 50.2227 28.0012 49.477C27.855 48.6639 27.8082 47.7603 27.6971 47.0847L27.7322 46.7396L28.3083 46.6987L29.7764 49.477L29.9314 49.7694V49.7723ZM29.1886 42.9232C29.2615 42.4238 29.3366 41.9246 29.4137 41.4258L29.6038 41.4141C29.4635 41.9172 29.3231 42.4202 29.1886 42.9232ZM28.7879 36.1325L31.4199 36.8461C31.4157 36.885 31.4118 36.924 31.4082 36.9631C30.1829 37.8697 29.0511 38.2674 28.4428 39.9051L28.6739 36.2612L28.7879 36.1354V36.1325ZM31.2445 32.3599C31.0749 34.0561 31.3147 34.8048 31.61 35.8576C32.078 36.191 32.2651 36.3928 32.1131 36.887C31.3234 36.4952 30.487 36.0857 29.2763 36.1501C29.2468 36.1162 29.2175 36.0821 29.1886 36.0477C29.5278 34.7112 30.1887 33.8894 30.7005 32.8308L31.2474 32.357L31.2445 32.3599ZM35.0288 30.1022L35.1428 30.0935C34.7802 31.3451 34.634 34.2316 33.9993 35.378C32.4991 34.6674 32.5283 31.5879 34.207 30.3713L35.0288 30.1022ZM33.6309 39.3729L34.8942 40.7444C34.3971 42.271 33.4583 43.4203 33.0606 45.1897L32.3148 45.1312C31.6773 43.3502 33.2711 40.4491 33.5431 39.1506L34.7129 39.2851C34.8591 39.6507 34.9995 40.0162 35.1428 40.3847L33.6309 39.3729ZM37.0876 30.0905C36.9589 31.5732 37.2865 32.3424 37.3742 33.4888C36.6314 33.869 35.8856 34.2433 35.1428 34.6206C35.2808 33.0858 35.6485 31.5804 36.2337 30.1549L37.0876 30.0905ZM37.9533 27.8387L38.1199 27.827L37.8684 28.5493L37.3742 28.5815L37.7544 28.1341L37.9533 27.8387ZM38.1199 34.7551L35.8856 36.1296C35.9324 35.299 36.9911 34.179 37.8772 33.869L38.0819 33.9801L38.1199 34.7551ZM39.6114 29.5554C39.474 30.3216 39.3395 31.0849 39.2079 31.8511L38.7897 32.1143L38.5674 32.357C38.1638 31.7897 38.0615 30.3976 38.1492 29.3389L39.6114 29.5554ZM41.0971 27.8299C41.0971 27.8591 41.0912 27.8825 41.0883 27.9059L40.518 28.4528C40.1378 28.599 40.0911 28.5932 39.6114 28.5756C39.6728 28.3271 39.743 28.0785 39.8103 27.8299H41.0971ZM42.5886 24.8118L41.9218 26.3179L39.6114 26.1512L39.6202 26.0284C40.5707 25.5897 41.4041 25.0692 42.5856 24.8089L42.5886 24.8118ZM41.3837 28.7306L41.6293 28.5844L41.8428 29.3389L41.0971 29.1927L41.3837 28.7277V28.7306ZM43.3314 30.962C42.4453 31.3071 41.2199 31.2106 40.5093 31.6054C40.4582 31.3031 40.4065 31.0009 40.3543 30.6988L40.8163 30.0935C41.5679 30.3859 42.3195 30.6842 43.0682 30.9796L43.3314 30.962ZM41.4275 32.319L40.4157 32.357C40.3923 32.2517 40.3747 32.1464 40.3543 32.0382C41.0649 31.7487 42.2581 31.7224 43.3314 31.6025L42.1996 32.2254L41.4275 32.319ZM44.0742 32.319C43.2232 32.5325 42.4072 33.2841 41.8487 33.869C41.7405 33.1846 43.0536 31.9798 43.6823 31.6025C43.9601 31.8511 43.9894 31.8248 44.0742 32.319ZM45.5657 23.3028L45.554 23.4198L44.6591 23.9608L43.3314 24.0573L43.3431 23.9403L45.5657 23.3028ZM44.3608 25.5664L44.0742 25.1423C44.7468 24.5779 46.2296 24.8879 47.0543 24.9727L44.3608 25.5664ZM51.0228 23.3437C52.2657 23.4461 53.4033 23.7385 54.269 24.2796L54.4971 24.265L54.3596 24.458L53.1694 24.8089C52.4529 24.7095 51.7364 24.6042 51.0228 24.5018L46.3085 23.8321L46.3202 23.7356C47.8592 23.3701 49.4446 23.239 51.0228 23.3467V23.3437ZM55.9739 22.946L55.7107 23.3028C54.9971 23.2518 54.3149 22.9891 53.7513 22.5483L55.9856 22.832L55.9739 22.946ZM59.9395 25.736L60.5566 25.502L61.1971 26.0518C61.1093 26.6806 60.504 27.1953 60.039 27.8065L59.6822 27.8299C58.7113 26.2214 57.4859 24.4638 55.3364 23.8438L55.2428 23.6537L56.1114 23.3028C57.5707 23.8117 58.7873 24.5837 60.1413 25.0282C60.3168 25.4523 60.2612 25.309 59.9366 25.736H59.9395ZM61.7352 29.3126L61.5656 29.1459L61.1971 29.1722L61.8112 28.5873L61.7352 29.3126ZM62.3932 37.6416C63.3992 38.5131 63.6566 39.7764 63.2384 41.4141C62.8055 40.4432 62.3756 39.4694 61.9399 38.4984C62.0861 38.282 62.2236 38.0656 62.3669 37.8492C62.3756 37.779 62.3815 37.7088 62.3932 37.6416ZM62.6856 30.8567L62.6739 30.9971L62.1446 31.6025L61.9399 31.2018C62.2587 30.6316 62.0276 30.9386 62.4458 30.8801L62.6856 30.8567ZM63.3056 30.848L65.6628 31.7224C65.659 31.8006 65.6521 31.8787 65.6423 31.9564C65.4434 32.0938 65.2446 32.2254 65.0457 32.357L62.6856 31.4855L62.7061 31.2486L63.3056 30.848ZM67.8971 33.869L66.5898 33.0004L66.4085 32.6495C66.9759 32.2985 66.894 32.3161 67.4935 32.433C67.6251 32.9127 67.7626 33.3923 67.8971 33.869ZM68.6399 33.5824L68.3767 33.869C68.0608 33.7052 68.0053 33.4976 67.8971 33.1115L68.5785 33.4098L68.6399 33.5824ZM68.0842 31.4212L67.8971 31.4358C68.1018 31.2399 68.3065 31.0439 68.5171 30.8509C68.3708 31.041 68.2246 31.2311 68.0842 31.4212ZM71.6199 35.2172L71.2544 35.378C70.5899 35.0058 69.926 34.6324 69.2628 34.2579C69.0547 33.9756 68.847 33.6929 68.6399 33.4098C69.6722 32.6495 69.7103 33.5327 70.6841 34.0152L71.6199 35.2172ZM72.3628 35.8839L71.6199 35.612L72.0674 35.378L72.3628 35.8839ZM71.4562 37.1005C71.7252 37.6416 71.7252 37.4895 72.3628 37.4076L71.2193 38.3961L70.1285 36.3138L70.1431 36.1852C70.9473 36.0126 71.2047 36.3021 71.9914 36.4191L72.2926 36.9046L71.4562 37.1005ZM71.6199 38.4546L73.1085 37.6416C72.8102 38.3142 72.4213 38.6593 71.9621 39.1506L71.6199 38.4546ZM74.5971 41.3352C74.1935 41.6832 73.9303 41.7943 73.167 41.8587L73.7811 41.9259L73.7694 42.0341L71.6726 42.9232L71.6199 40.2327L73.0646 38.5218L73.3278 38.3961L74.5971 41.3352ZM73.8513 37.2058C77.9632 36.0594 77.1677 38.2411 75.334 39.9051C74.8369 39.0073 74.3426 38.1066 73.8513 37.2058ZM77.5742 37.6416C76.0593 44.7598 75.7669 45.1487 70.4092 48.2077C70.3194 48.0639 70.2257 47.9225 70.1285 47.7837L70.3186 46.9882C73.8133 45.9939 75.799 44.1632 75.5914 40.0192L77.3432 37.7673L77.5742 37.6416ZM77.7555 37.6416C77.697 37.3959 77.6385 37.1502 77.5742 36.9046L78.1299 36.887L77.7555 37.6416ZM68.6399 44.5638L68.6925 43.7771L68.7393 43.1045L69.254 42.932C69.2804 42.932 69.3038 42.9261 69.3271 42.9232C69.4734 43.8152 69.3272 44.4732 69.0347 45.1897C68.7832 45.0288 68.7335 44.9615 68.6399 44.5638ZM65.6628 51.1673L65.6745 51.0357L66.6512 48.699L66.856 48.2077L68.5756 48.3247C68.6019 48.4534 68.6194 48.5791 68.6282 48.699C68.7042 49.5881 68.3972 50.2987 68.0813 51.2258L65.6628 51.1673ZM66.4085 54.1971L66.429 53.0273L66.4582 52.7348L67.7158 52.8284L67.8971 52.8138C67.6076 53.2905 67.321 53.7672 67.0373 54.2468L66.4085 54.1971ZM65.6715 49.3132L65.7476 49.2752L66.3412 48.9681L66.4085 48.9622L66.3208 49.2752L65.9728 50.4713L65.6628 49.4068L65.6715 49.3132ZM64.5105 53.0712L64.1742 52.7348C64.5017 52.9629 64.2883 52.7407 64.5105 53.0712ZM62.6856 52.1733C63.1038 51.9101 63.5571 51.992 64.1771 51.9979L63.9929 52.6032C63.4811 52.8079 63.408 52.7319 62.8319 52.6705L62.6856 52.1733ZM63.5981 54.9984L64.1742 56.3612C63.7297 56.6624 63.2822 56.9607 62.8377 57.2649C62.44 56.718 62.8728 55.1885 63.5981 54.9984ZM62.1271 50.2607L61.9399 50.2753L62.1856 49.7168L62.1271 50.2607ZM64.2707 50.4713L64.1742 50.4099L64.5017 49.7197L64.61 49.7168L64.9199 50.442L64.2707 50.4713ZM69.4266 40.6596L69.3856 40.4052C69.5816 40.1654 69.7073 40.0162 70.0437 39.908L70.1314 40.3526C69.9852 40.4491 69.8389 40.5426 69.6956 40.6421L69.4266 40.6596ZM69.3856 42.5021C69.2511 42.6805 69.0113 42.7799 68.8417 42.9232L68.6399 39.1506L69.3856 42.5021ZM68.0199 47.5614C68.5112 47.2865 68.5814 47.5409 68.6399 48.2048H67.1513L67.1777 47.9708L68.0199 47.5614ZM67.2888 45.4763L67.6251 45.1897L67.8971 45.6751L67.7713 45.9442L67.1513 45.8711L67.2888 45.4763ZM67.1513 47.4766L66.3763 48.2077L65.8704 48.1229L65.6657 48.1434C65.7827 47.9124 65.9055 47.6813 66.0254 47.4532L67.1513 47.4766ZM64.3438 47.0467C64.0338 46.8303 64.2561 46.8595 64.1976 46.6958L64.3438 47.0467ZM66.6893 43.6777L64.1742 42.3734C64.2912 40.6479 64.5017 38.6651 64.3321 36.887C66.2711 37.5889 68.0111 40.7444 66.6893 43.6777ZM64.9199 43.6777C65.537 44.0052 65.5048 44.3035 66.3617 44.5667C66.5109 45.1253 66.2828 45.3476 65.926 45.9413L65.0135 45.9062C64.8264 44.9118 65.0311 44.3416 64.9199 43.6777ZM65.0896 48.5587C64.7766 48.3423 65.0018 48.3715 64.9433 48.2077L65.0896 48.5587ZM70.1285 41.2942L70.1372 41.1539L70.8099 40.6596C70.9268 41.4317 70.883 42.7185 70.7075 43.6777C70.3098 43.3677 70.2367 42.0575 70.1285 41.2942ZM70.1285 43.6777C70.2805 43.4262 70.4326 43.1747 70.5788 42.9232L70.3156 43.666L70.1285 43.6777ZM74.4713 41.4229L74.5971 41.4141C74.6322 44.3065 72.8482 44.8329 70.5028 45.9179L70.1285 45.9442L71.5907 42.9144L74.4713 41.4229ZM70.0553 35.7728C70.0787 35.8488 70.1051 35.922 70.1255 35.998L69.9413 36.1325L69.3827 35.378L70.0553 35.7728ZM69.3827 37.0303L69.4032 36.8987C69.4577 36.8944 69.5123 36.8905 69.567 36.887L70.1285 37.6416C69.6956 37.4368 69.6254 37.3871 69.3827 37.0303ZM70.1255 38.9605L69.1224 39.9051L66.9671 36.7759L64.1713 34.3486L64.7854 33.869C66.1395 34.4539 68.5083 35.5681 68.985 36.9602C69.14 37.4134 68.6048 37.7878 68.9674 38.165C69.4003 38.6154 69.8331 38.2937 70.1285 38.9576L70.1255 38.9605ZM63.8437 43.6777L64.0718 43.7684L64.1713 45.9442L63.8233 45.8623C63.4957 45.6196 63.2676 44.4966 63.5659 44.0082L63.8437 43.6777ZM62.1943 47.462L62.4341 47.4532L62.6827 48.044L62.3025 48.1902L61.937 48.2077C62.0247 47.9591 62.1124 47.7106 62.1943 47.462ZM61.5158 59.5284L61.1941 58.4259C61.6533 58.2943 62.1095 58.1627 62.5687 58.0252L62.6856 58.0194C62.6796 58.0533 62.6747 58.0875 62.671 58.1217L61.5158 59.5284ZM60.4484 56.5103C60.5859 56.0658 60.6824 55.9986 60.9309 55.7529L61.1357 55.8348L61.1941 56.0278L60.735 56.4782L60.4484 56.5074V56.5103ZM60.7993 57.2649L60.4484 56.8788L61.1941 56.5103L61.0011 57.2502L60.7993 57.2649ZM60.0156 60.6865C59.9103 60.6046 59.8109 60.5198 59.7056 60.4321L59.9337 60.4175L61.083 59.5284L61.1941 60.435L60.3139 61.0375L60.0156 60.6865ZM60.0741 69.3313C58.2814 69.4073 57.2081 68.9511 55.7458 68.8224L54.0701 65.509L53.7484 65.1756C56.5618 64.8422 58.3311 63.4852 60.4162 62.5465C61.1532 63.2484 62.8231 66.8221 61.3521 68.4042C61.0011 68.9453 60.6093 69.0008 60.0741 69.3313ZM52.3768 65.6084L53.0495 65.5646C54.0643 66.246 54.7544 67.4655 55.2399 68.5856L52.2598 67.7228C52.4821 66.9683 52.5757 66.2021 52.3768 65.6084ZM50.2361 62.76L53.5934 61.792L58.8692 62.3067L58.9628 62.5728C57.3923 63.2805 55.6055 63.8771 53.804 64.7896C51.8533 64.9446 51.3825 64.2164 50.0314 63.7368L50.2361 62.76ZM50.0285 66.3162L50.0957 65.6611L51.3796 65.5646C51.4849 66.1348 51.596 66.4536 51.4381 67.0736L50.0285 66.3132V66.3162ZM48.537 67.4976L49.0371 67.2227C49.6512 66.8162 50.1103 67.3573 50.7713 67.5708L50.5081 67.8281L48.537 67.4976ZM49.9846 66.3191C49.8224 66.2469 49.6605 66.1738 49.4991 66.0997L49.2827 65.5646L50.0285 65.6113L49.9846 66.3191ZM47.7942 66.3191L48.5399 66.9595C48.5399 67.3543 48.5048 67.3105 48.4141 67.8281L47.7942 66.3191ZM45.864 63.4911C46.5629 63.2776 47.4929 63.3244 48.5399 63.301L47.566 64.0555L45.5628 63.8596L45.864 63.4911ZM44.0742 25.6687C45.4575 24.3468 48.9259 24.7416 49.7945 25.581L50.0285 25.5605C48.8733 26.6396 47.0835 26.7625 45.9839 27.8299C45.1212 27.2567 44.4076 26.8882 44.0742 25.6687ZM51.6779 27.8299L52.2628 28.4938C51.7422 28.523 51.1953 28.5552 50.6485 28.602C49.4172 28.7072 48.2007 28.8915 47.3496 29.3331L47.2385 29.3389C47.177 29.2425 47.1156 29.146 47.0543 29.0494C48.4512 28.3166 49.9935 27.9031 51.5697 27.8387L51.6779 27.8299ZM54.579 24.0573C55.5411 25.0224 56.977 25.5956 57.4742 27.0754C55.4563 26.1366 52.3505 26.1512 50.7771 24.6568C52.1633 24.9522 53.3448 24.8411 54.579 24.0573ZM55.2428 29.3389L58.0035 29.7191L58.2199 29.7016L56.0061 31.6025C55.6552 30.9035 55.5733 29.956 55.2428 29.3389ZM58.7902 32.5676L58.2199 32.4798L58.9628 32.357L58.7873 32.5676H58.7902ZM58.2199 30.7632L58.9014 30.0935L58.9628 30.848L58.4685 30.7398L58.2199 30.7632ZM59.5711 55.7383L59.2435 55.7529L58.9628 55.4897L59.1792 55.206L59.7056 55.0013L59.5711 55.7383ZM58.9774 57.1186C59.0651 57.0134 59.1587 56.9081 59.2523 56.8028L59.2757 56.5103L59.7085 57.1976L58.9628 57.2649L58.9774 57.1186ZM58.682 59.5284L58.2199 58.9728L59.7085 58.7739L58.9979 59.505L58.682 59.5284ZM58.9628 61.792L57.4742 61.6136L58.527 61.0375L58.9628 61.792ZM57.9187 59.6629L58.2199 59.9495L57.1408 60.2244L55.9856 60.2829L57.5941 59.5284L57.9187 59.6629ZM53.7543 27.0754C54.6228 27.0988 55.5411 27.3181 55.9856 27.8299C55.3861 27.7714 54.307 27.8679 54.035 27.4059L53.7543 27.0754ZM54.5088 30.0935C54.9328 30.4649 55.082 30.9035 55.0059 31.6025C54.3509 31.3773 54.5205 30.6608 54.5088 30.0935ZM55.2399 34.8516L55.2662 34.7229C56.7489 34.4012 57.0677 34.9159 56.3921 35.378C55.8072 35.2961 55.5411 35.0768 55.2399 34.8516ZM57.1496 54.2439L57.4742 54.3258C57.4699 54.3608 57.466 54.3959 57.4625 54.431L56.7314 54.9984L57.0355 54.2526L57.1496 54.2439ZM56.7402 35.8371L57.2958 35.378L57.4742 36.1325L56.7314 35.9688L56.7372 35.8371H56.7402ZM58.9628 56.0161L57.1642 56.487L56.7314 56.5074C56.7314 56.484 56.7372 56.4577 56.7431 56.4343C57.4157 56.2998 57.8485 56.0775 58.2463 55.7529L58.878 55.8699L58.9628 56.0161ZM57.6789 54.2439L57.4742 53.8257L57.986 53.4894L58.2199 53.6151L57.9275 54.2234L57.6789 54.2439ZM53.0085 59.4641L53.8946 58.7739L56.6378 59.0079L56.7314 59.2126L54.8773 60.2829C54.19 60.1689 53.5963 59.8647 53.2395 59.4465L53.0085 59.4641ZM51.6311 59.5284L53.0056 60.2829L50.7742 59.8881C51.0608 59.7712 51.3445 59.6483 51.6311 59.5284ZM51.5199 61.0696C51.5168 61.1301 51.5138 61.1905 51.5112 61.2509L51.0871 61.4849L50.7742 61.5258L50.7859 61.3445C51.1105 60.9146 51.055 61.0579 51.517 61.0696H51.5199ZM48.0106 30.3537C47.9401 30.278 47.8689 30.203 47.7971 30.1286C48.537 29.725 49.7038 29.532 50.8502 29.4413C51.7949 29.3623 52.7248 29.3536 53.3916 29.3389L53.7543 31.6025C52.7804 31.4972 51.8533 31.3685 50.8502 31.3247C49.9835 31.2817 49.1147 31.313 48.2533 31.4182C48.174 31.063 48.0931 30.7082 48.0106 30.3537ZM49.1043 60.6368L49.2856 60.9585L49.1102 61.634L47.0543 61.792C47.2736 61.1193 47.6011 60.7947 47.955 60.2829L49.1043 60.6368ZM46.5659 58.0194C45.63 57.9667 44.3491 57.2824 44.0742 56.5103L47.0543 57.2678L46.5659 58.0194ZM47.6128 57.9784L47.0543 58.0194L47.0718 57.8381L47.6918 57.2649C47.6626 57.5017 47.6392 57.7386 47.6128 57.9784ZM45.5657 30.3801L46.4723 30.0935L47.0543 30.8246L46.4401 30.848L45.5657 30.3801ZM45.554 62.7834C45.5043 62.9471 45.4604 63.1138 45.4136 63.2805C45.3412 63.2843 45.269 63.2912 45.1972 63.301C45.0718 63.0493 44.9461 62.7978 44.8199 62.5465L45.5657 62.6225L45.554 62.7834ZM45.9663 59.5284L47.7035 59.8794L47.7971 60.1133L46.4489 61.792L44.8199 61.5522L45.9663 59.5284ZM58.9628 35.8752L59.2991 35.3809L59.4219 35.378L60.3577 35.612L60.4513 35.7465L59.4073 36.1325C59.2593 36.0464 59.1111 35.9606 58.9628 35.8752ZM60.9777 33.4361L60.4513 33.1145C60.9865 33.3104 60.6794 33.0881 60.9777 33.4361ZM60.8081 36.887L60.4513 36.5829L61.1971 36.1325L60.8081 36.887ZM60.4513 42.1687L61.6094 42.4553C61.9223 42.5781 61.9136 42.6103 61.9399 42.9232C61.4427 42.7331 60.6122 42.6015 60.4513 42.1687ZM60.5683 40.1127L60.7262 39.908L61.1971 40.6596L60.4513 40.5134L60.5683 40.1127ZM45.4867 64.9446L45.5657 65.1434L44.5626 65.5265L44.0742 65.5646L44.0859 65.4622L44.4281 64.927C44.9018 64.7077 44.9135 64.851 45.4867 64.9446ZM43.3314 27.0725C43.9806 27.5579 44.1502 28.1545 44.0479 30.0935C43.6209 29.5466 43.3606 28.3856 43.3314 27.0754V27.0725ZM43.7584 25.5664L43.7057 26.1132L43.3343 26.1396L43.7613 25.5664H43.7584ZM43.3314 26.3209C43.3109 26.5022 43.2963 26.6835 43.2729 26.8648L42.5856 26.7391L43.153 26.3326L43.3285 26.3209H43.3314ZM43.3314 70.0946L43.6999 66.2518L46.3085 65.5646L43.5653 69.9542L43.3314 70.0946ZM43.5156 59.7653L43.9163 59.5284C44.2818 59.9612 43.9543 60.5842 43.6092 61.0375C43.3226 60.7684 43.2904 60.5988 43.3665 59.9876L43.5156 59.7653ZM41.0971 59.3968L41.954 58.0194L43.3285 58.8265C42.8605 59.5635 42.3839 60.3005 41.9101 61.0375C41.4831 60.6573 41.2199 60.0987 41.0971 59.3997V59.3968ZM41.0971 65.3072L42.4716 64.0555L43.1179 64.114L43.3314 64.4649C43.2729 64.8334 43.2203 65.199 43.1676 65.5646L41.0971 65.3072ZM38.8657 64.2836L40.5034 63.301L41.7492 63.4969L41.8428 63.6695L40.5297 64.81C39.8746 64.7428 39.4389 64.5673 39.0967 64.269L38.8628 64.2836H38.8657ZM38.6464 62.8243L39.2459 62.5465L39.5032 62.6021L39.6085 62.7249L37.8743 63.301L37.3771 63.1255L38.6464 62.8243ZM36.6314 62.1166L37.0701 61.055C37.8831 60.9497 38.0761 61.3504 38.6873 61.6048L38.8628 61.8739L37.9533 62.4968L37.2134 62.5465L36.6314 62.1166ZM35.1399 65.2136L36.2249 63.301C36.9443 63.301 37.032 63.3595 37.3274 63.7397C37.459 63.9619 37.345 63.842 37.0584 63.8918L36.9911 64.5498L38.1199 64.7252C37.8977 65.278 37.8626 65.2048 37.5292 65.5558C36.4179 65.6143 35.9149 65.4037 35.1399 65.2136ZM33.8882 62.5465L35.7804 63.1168L35.8856 63.3419L34.672 64.81L32.9085 64.231L33.8882 62.5465ZM26.5975 60.5052L26.6209 60.28L27.6766 61.093L27.7673 61.3094C25.571 63.0056 28.9312 68.5329 32.7535 64.9504L34.3971 65.6113C33.7654 66.7373 32.6804 67.1818 31.5369 67.8193C28.8025 68.0474 24.9773 63.5818 26.5975 60.5052ZM29.1476 61.2773L29.1886 61.789C28.9838 61.634 28.7791 61.4849 28.5803 61.3299L28.4428 61.0345L29.1476 61.2773ZM32.9085 64.4825L31.5486 65.5353C28.8698 65.8161 27.7848 63.9619 27.6971 61.6838L28.2206 61.0521L28.4487 61.0345C29.7969 62.0961 30.99 63.7163 32.8208 64.2515L32.9085 64.4825ZM30.3145 53.4864C30.0718 53.311 30.0571 53.2232 29.9343 52.9249L30.4432 50.9889L31.0368 50.4684L31.4199 51.0299L30.3145 53.4864ZM29.9343 54.1386L31.107 51.3633L31.3468 51.2229C31.8879 52.1763 32.6716 52.6091 32.9085 53.9046L31.1421 55.75C30.5929 55.3408 30.1726 54.7825 29.9314 54.1415L29.9343 54.1386ZM32.1657 56.4489L33.6572 54.9955L34.3971 56.5074C33.6534 56.485 32.9096 56.4655 32.1657 56.4489ZM35.8856 41.1977C35.1808 42.7038 34.2421 43.7274 33.6806 45.1867C33.4349 43.8619 34.9147 41.9581 35.3914 40.7883L35.6195 40.6567L35.8856 41.1977ZM35.8856 37.045C36.994 36.7028 37.7368 36.077 38.5294 35.3751L38.8657 36.3811L37.924 37.6386L35.8856 37.045ZM39.6085 37.1239L39.2049 37.6386L38.8657 37.5801L38.8715 37.4983L39.55 36.8841L39.6085 37.1239ZM39.0236 33.8719L39.1406 33.866L39.6085 34.8516L39.433 35.3751C38.7516 35.0183 38.778 34.5942 39.0236 33.8719ZM38.8832 55.75L39.5705 56.2442L38.8657 55.9342C38.8697 55.8726 38.8755 55.8112 38.8832 55.75ZM38.8715 56.5074L39.6085 56.8262C39.6041 56.8554 39.6002 56.8846 39.5968 56.9139L38.0176 58.0165C37.5643 57.8117 37.5087 57.4052 37.3742 56.9636L37.3888 56.8701L38.8715 56.5074ZM36.6694 54.9955L37.3771 55.2821L36.9969 55.5014L36.6314 55.5423L36.6694 54.9955ZM36.6314 39.9051C37.5263 40.1566 37.2426 39.987 37.2806 40.6567C36.8712 40.4169 36.8419 40.3058 36.6314 39.9051ZM36.6314 53.3841L36.6928 52.7319C37.0408 52.9746 37.1607 53.1179 37.3771 53.4864C37.1286 53.4518 36.88 53.4177 36.6314 53.3841ZM38.1229 43.9585C37.8421 44.3182 37.8538 44.2217 37.3771 44.4293L37.7017 43.6748L38.1229 43.9585ZM38.1229 40.9228L37.655 41.4112C37.187 41.148 37.4064 41.2533 37.6169 40.7649L37.8948 40.6567L38.1229 40.9228ZM38.0615 39.639L37.3771 39.1477C37.9035 39.3495 37.7807 39.2266 38.0615 39.639ZM36.6314 53.4864L37.3771 54.0801C36.9969 54.0713 36.7922 53.9894 36.6314 53.4864ZM38.8657 53.4572L38.5615 53.4864L38.3013 53.0068L38.1199 52.7729L38.5235 52.7319C38.6376 52.9746 38.7487 53.2174 38.8657 53.4572ZM38.4563 39.484L38.1199 39.1506C38.4475 39.3787 38.2311 39.1564 38.4533 39.4869L38.4563 39.484ZM38.5001 51.9131L38.1199 51.1234L38.2808 50.4742L38.3744 50.4684L38.8657 51.9774C38.7439 51.9557 38.622 51.9343 38.5001 51.9131ZM36.5495 60.6953L36.6314 60.7947L36.3653 61.792C36.0521 61.662 35.7762 61.4559 35.5628 61.1924C35.3493 60.9289 35.205 60.6163 35.1428 60.2829L36.5495 60.6982V60.6953ZM34.3971 61.792L35.1428 62.4529C34.6661 62.2423 34.6369 62.2511 34.3971 61.792ZM35.6838 55.1007L35.7716 55.7529L35.1428 54.9984L35.6838 55.1007ZM34.9469 58.6306L34.3971 57.2649C35.0492 57.5134 35.5581 58.2592 35.8886 58.7739L34.9469 58.6306ZM35.5318 45.1955L35.716 45.1897L35.1721 45.9442C35.0843 45.757 35.1925 45.5786 35.4938 45.3593L35.5318 45.1955ZM35.1428 51.682L34.9937 51.9803L34.5667 51.6498C34.5101 51.53 34.4535 51.4101 34.3971 51.2901L34.982 51.2258L35.1428 51.682ZM29.9314 58.0194C31.4229 58.9903 33.9584 59.8911 34.3971 61.792C32.6287 60.9089 31.0975 59.6153 29.9314 58.0194ZM33.8005 57.2883L34.3971 58.0194L32.9085 57.2649L33.8005 57.2883ZM39.2517 59.5284L38.1199 58.3879L40.0998 56.5103L40.3543 58.578L39.2517 59.5284ZM40.3543 60.7889L40.5502 60.2976L40.8134 60.2829L41.0971 61.0375L40.3543 60.7889ZM41.3574 58.0194L41.0971 57.2649L41.6381 57.3643L41.3574 58.0194ZM40.3543 32.6056L40.3601 32.5383C40.6058 32.4798 40.8514 32.4213 41.0971 32.357L40.5824 33.1115L40.3543 32.6056ZM32.8471 48.2077L32.1657 46.6987C33.0401 46.8888 32.8968 47.5117 32.8471 48.2077ZM31.0251 48.9622C30.3876 48.5206 29.9811 47.6404 29.9314 46.6987C31.2386 47.0058 31.1655 47.5205 31.4229 48.7137L31.0251 48.9622ZM30.256 45.023C29.3055 44.1251 30.6888 40.5339 31.2971 39.7062C31.6188 39.2997 32.0224 39.3085 32.5546 39.1506L32.9085 39.2413C32.0136 40.8263 31.4112 42.9846 31.1977 45.1897L30.256 45.023ZM28.8669 57.2649L29.3202 58.0282L28.9137 58.9786L28.6797 59.2272C29.0131 59.274 29.0891 58.9874 29.5863 58.5809C30.5514 60.1455 32.0253 61.6428 33.6513 62.4938L32.7652 64.0555L30.0747 62.3242C29.7676 61.7539 30.1917 61.0989 29.6974 60.7509C29.25 60.435 28.6739 60.8912 28.2176 60.7538L26.9543 59.5957C27.3257 58.7651 27.6825 57.9521 28.4165 57.5281L28.8669 57.2649ZM26.2933 48.9418C26.3948 48.1891 26.5403 47.4431 26.7291 46.7075L26.8285 46.6987L27.2175 48.9418L27.4222 50.1116C28.0071 51.7434 28.5978 53.3724 29.1886 54.9984C27.7731 54.2263 26.8987 52.4395 27.0244 50.0355C26.6852 50.8105 26.966 52.03 27.0771 52.7144C26.2085 51.9774 26.1003 50.5122 26.2933 48.9418ZM25.0007 49.7168C24.8654 49.4312 24.7804 49.1246 24.7492 48.8102C24.7075 48.3869 24.7115 47.9604 24.7609 47.538L24.8896 47.269L25.4657 46.6987L25.1411 48.8073L25.0007 49.7138V49.7168ZM76.8285 57.2619L75.3399 56.6887L76.7846 56.5103L76.8285 57.2619ZM37.4356 69.5448L37.8246 69.3401L37.3742 70.0917L37.4327 69.5477L37.4356 69.5448ZM26.2085 43.6806L25.5739 43.6221C24.7843 43.3619 24.0444 42.4406 23.9771 41.4171C25.1849 41.5253 25.5944 42.0985 26.191 42.7974C26.1968 43.0899 26.2056 43.3853 26.2085 43.6806ZM26.1208 43.6192C26.2085 41.9903 24.9656 40.9725 23.3513 41.0164C23.6262 38.7295 25.6148 37.5597 27.3871 36.7905L27.7292 36.7642C27.4339 39.6361 27.6591 42.1102 26.5858 44.596C25.7932 46.4267 22.9828 46.3916 23.1349 49.2167L23.1553 49.4506C23.556 53.2057 27.6386 53.969 28.203 57.2707C22.1493 60.3502 29.5278 73.2911 34.3152 65.6903C35.175 65.8131 35.9383 66.2021 37.0057 65.8278C37.5029 65.5529 37.5994 65.3306 37.7924 64.7574L39.5032 65.6435L39.591 65.8599C38.0234 67.0765 36.918 68.7464 35.2335 69.8869L35.3943 69.4249L34.9557 69.3459L34.7129 69.4775L34.4936 70.5011C35.4557 71.4837 38.3715 67.9305 39.2254 67.2344C38.7429 68.9219 37.5497 69.7904 36.8858 71.3346L37.0905 71.5451C38.3481 70.6444 39.8893 68.0942 40.1232 66.1553L42.0066 66.4682C39.6465 69.6588 33.5841 76.6776 30.3964 78.5522C30.8818 77.0285 31.6539 75.8646 32.0458 74.6129L31.8177 74.6305C31.7497 74.56 31.6814 74.4899 31.613 74.4199C30.838 75.9465 29.56 77.0198 29.3319 79.0786C29.4681 79.2827 29.6406 79.4601 29.8407 79.6021C33.6309 78.9704 39.9594 69.4453 42.9834 66.8426C42.1645 75.0604 37.7602 76.3413 33.9409 81.3188C37.4122 79.5875 39.5179 75.1715 42.4862 72.7208C42.1587 76.1512 41.3427 83.8221 39.2897 85.1879L39.629 85.1615C41.9335 83.7285 42.068 77.8357 42.8371 74.8235L43.1647 71.6563L46.4547 67.0356L46.6945 66.904C47.063 68.0591 48.73 69.3138 50.5344 68.9774L51.8299 68.4335L55.082 69.6501C55.5089 74.3292 55.3452 76.9525 52.3827 80.5145C55.4095 78.9675 56.5208 73.0074 55.5119 69.8431C62.5511 70.659 62.2674 68.2843 60.9339 63.1577L62.1709 63.1782C61.9428 62.836 61.3258 63.0904 60.8549 62.8272C60.6414 62.6898 60.6824 62.7161 60.5508 62.5114C62.2236 60.6251 66.2535 62.4997 65.4054 65.6318C66.5635 63.0349 64.0046 60.7245 61.5392 61.6545C62.5921 60.4058 63.8671 59.3793 64.5339 57.7269L64.7737 57.5983L70.5642 63.6812L70.9064 63.6549L71.1696 63.2981C69.3272 61.1164 67.4876 58.9318 65.6511 56.7472L66.2418 56.4782C66.3724 56.3435 66.5328 56.2413 66.71 56.1798C66.8873 56.1183 67.0765 56.0993 67.2625 56.1243C67.1649 56.0758 67.0674 56.0271 66.97 55.9781C69.9267 56.2735 73.7051 58.7388 76.7904 57.9433C77.0741 57.4491 77.0887 57.183 76.9162 56.7004C80.2033 56.7823 86.1166 55.6827 88 54.0859C82.9406 55.1475 77.2437 55.5072 72.5997 54.8873L68.4849 54.4047L68.2539 54.4223L69.3622 52.4336C72.7547 52.3693 81.6509 52.2845 83.4495 50.1554L83.0518 49.6232L81.5018 49.4009C81.3933 49.574 81.3327 49.7728 81.3263 49.977L82.5546 50.1086C79.8875 50.7813 72.4593 52.1997 70.0349 51.372C69.7804 51.062 69.9676 49.9858 69.9793 49.2108C69.9836 49.0722 69.9778 48.9334 69.9618 48.7956C73.4478 47.7544 76.0359 45.409 77.0975 41.8704C77.7029 39.8437 77.3022 37.1824 78.6124 35.919C79.4488 35.9921 79.6184 36.346 80.2326 36.5858C79.9079 36.1354 79.443 35.8839 78.861 35.6792L77.7701 36.4308C76.7729 36.8169 75.7289 35.8079 74.0356 36.5946C72.6611 35.4189 71.8861 33.5619 70.029 32.8512L69.8389 32.5296L72.0908 30.3391C71.3538 30.9562 70.6022 31.6844 69.8506 32.4155L68.3416 31.7399L68.2539 31.5206C69.9735 30.304 71.5 29.8536 73.4565 30.2397C73.5472 30.421 73.6437 30.5994 73.7373 30.7807C73.6466 30.9357 73.5647 30.9796 73.4858 31.0234L72.8278 30.848C73.1114 31.0147 73.4068 31.0673 73.7022 31.12L73.9508 30.8772L73.9888 30.538C73.5618 30.1578 73.4302 29.8829 72.5909 29.8536L72.9915 29.2629C72.0323 29.9238 70.0846 30.0993 69.1312 30.6725L71.3363 28.9354L71.5995 28.5815L67.5198 31.0147C66.6483 30.9562 65.7213 30.5468 65.2504 30.0584C65.1753 30.0641 65.1003 30.07 65.0252 30.0759L69.8682 26.8005L69.7892 26.47C67.9526 27.5404 66.1131 28.6107 64.2795 29.684L62.5189 29.2512L62.6827 27.6691L75.3077 17.755L75.5329 17.7375L75.3545 17.3018C74.8866 17.0795 72.9652 18.6382 72.2399 19.1032C69.4441 20.8959 66.9729 23.1273 64.2239 24.7475C65.3586 23.3057 67.435 21.8698 67.7801 19.77L67.2244 19.6998L66.3588 20.4368L67.3005 20.0274C66.6922 21.8786 63.9373 25.1832 62.3815 26.2302L62.2002 25.7945C63.212 24.0924 64.2093 21.8025 63.7414 19.6179L62.8933 19.1208L61.9838 19.188C62.5657 19.4191 62.9605 19.4746 63.3875 19.7583C63.6595 21.8756 62.6184 23.3086 62.0569 25.0224L61.8171 25.1511C61.4427 24.458 61.4661 24.1246 60.697 23.9988L60.6297 23.5543L61.1561 22.8407L61.5188 22.5892C61.6416 22.8232 61.6474 22.7384 61.6855 23.139C61.7933 22.9668 61.8528 22.7689 61.858 22.5658L61.4281 22.3728L60.2905 23.5777C59.34 22.9431 58.2931 22.2763 56.9566 22.0277C57.714 20.4573 60.0156 17.9334 58.8282 15.9419C57.3777 13.5204 52.4265 16.3104 50.6134 18.2317C50.403 18.446 50.2203 18.6857 50.0694 18.9453C50.2489 18.8026 50.4302 18.6622 50.6134 18.5242C52.4031 17.1906 57.1671 13.9971 58.1995 16.5502C59.2815 17.9744 57.2081 20.7146 56.6436 21.8289C54.7135 21.6329 52.6956 21.4487 50.6192 21.4896C48.4337 21.5087 46.2636 21.8577 44.1824 22.5249C43.1296 22.8729 38.6376 25.5634 38.465 25.5283L36.4179 23.5455L32.1364 21.396L32.1131 21.6212L31.8615 21.864L37.3479 26.508L36.5115 27.0198C34.2538 25.309 32.6979 24.2708 29.3377 23.3964L28.7704 23.4402C30.7327 24.7914 32.7096 26.0284 34.6837 27.2684L35.0785 27.8007C33.6689 28.3943 33.0723 29.6285 31.882 30.3947C30.022 29.5056 28.2995 28.6985 26.0447 28.0171L25.8868 28.4791L30.1098 31.1989L30.3379 31.1814L29.6097 31.6844C29.2734 32.8162 28.6154 34.1292 28.0656 35.726C25.9599 37.4398 23.2314 37.3374 22.8073 40.8292C22.1347 41.0135 21.6609 41.072 21.0468 41.5224L21 41.9756C21.386 42.5138 24.8048 43.9614 25.6207 44.1018L26.1237 43.6163L26.1208 43.6192ZM51.0959 19.4746L51.4088 19.5331L50.9906 19.4805C50.9175 19.4805 50.8444 19.4863 50.7742 19.4893C51.1047 18.8751 52.0756 18.7231 53.0085 18.7903L52.9442 19.2348L51.1193 19.3255L51.0959 19.4746ZM52.4002 20.2847L53.2776 19.9981C53.6577 19.3664 53.8742 18.6967 53.6811 18.0855C52.7775 17.9071 52.2569 18.1265 51.4117 18.4832C51.2579 18.7333 51.1049 18.9838 50.9526 19.2348L50.7771 19.5273C50.8312 19.5901 50.8898 19.6487 50.9526 19.7028C51.2392 19.9367 51.5843 20.0186 52.2189 19.966C52.3944 20.2643 52.1897 20.1327 51.8767 20.2145L52.4031 20.2847H52.4002ZM74.0502 27.0783L73.1085 27.2538L73.6876 27.2128L74.3514 27.4994L73.3454 29.3419C73.863 28.7306 74.3777 28.2978 74.5971 27.3708L74.0502 27.0783ZM68.6399 56.5133C68.4059 56.0951 68.1515 55.8202 67.8971 55.7558C68.1223 55.9693 68.3825 56.2208 68.6399 56.5133ZM65.6628 65.5675L64.9199 66.0003L65.4902 65.9477L65.6657 65.5675H65.6628ZM68.6399 56.5133C69.3973 57.3672 69.9647 59.0049 69.8009 60.2859C70.6607 58.4288 69.681 57.2707 68.6399 56.5133Z" fill="white"/>
</svg>
