<svg width="900" height="900" viewBox="0 0 900 900" fill="none" xmlns="http://www.w3.org/2000/svg">
<path d="M380 803V298H484.354C503.528 298 519.52 303.507 532.331 314.521C545.142 325.535 554.772 340.823 561.219 360.385C567.667 379.783 570.891 402.14 570.891 427.456C570.891 447.182 568.855 464.525 564.783 479.484C560.71 494.279 555.111 506.444 547.984 515.979C540.943 525.349 532.883 532.006 523.805 535.952V540.883C533.731 541.705 543.021 547.13 551.675 557.158C560.413 567.185 567.498 581.241 572.927 599.323C578.357 617.242 581.072 638.612 581.072 663.435C581.072 690.23 577.636 714.148 570.764 735.19C563.977 756.067 553.923 772.588 540.603 784.753C527.283 796.918 510.867 803 491.353 803H380ZM435.104 715.71H480.027C495.383 715.71 506.582 710.039 513.624 698.696C520.666 687.189 524.187 671.901 524.187 652.832C524.187 638.859 522.447 626.529 518.969 615.844C515.49 605.159 510.527 596.775 504.079 590.693C497.716 584.611 490.123 581.569 481.3 581.569H435.104V715.71ZM435.104 509.321H475.955C483.505 509.321 490.208 506.773 496.062 501.677C502.001 496.416 506.667 489.019 510.061 479.484C513.539 469.95 515.278 458.525 515.278 445.209C515.278 426.962 511.927 412.25 505.225 401.071C498.607 389.893 489.19 384.304 476.973 384.304H435.104V509.321Z" fill="white"/>
<path d="M616.928 803V298H721.282C740.456 298 756.448 303.507 769.259 314.521C782.07 325.535 791.699 340.823 798.147 360.385C804.595 379.783 807.819 402.14 807.819 427.456C807.819 447.182 805.783 464.525 801.711 479.484C797.638 494.279 792.039 506.444 784.912 515.979C777.87 525.349 769.811 532.006 760.733 535.952V540.883C770.659 541.705 779.949 547.13 788.603 557.158C797.341 567.185 804.425 581.241 809.855 599.323C815.285 617.242 818 638.612 818 663.435C818 690.23 814.564 714.148 807.692 735.19C800.905 756.067 790.851 772.588 777.531 784.753C764.211 796.918 747.794 803 728.281 803H616.928ZM672.032 715.71H716.955C732.311 715.71 743.51 710.039 750.552 698.696C757.594 687.189 761.114 671.901 761.114 652.832C761.114 638.859 759.375 626.529 755.897 615.844C752.418 605.159 747.455 596.775 741.007 590.693C734.644 584.611 727.051 581.569 718.227 581.569H672.032V715.71ZM672.032 509.321H712.883C720.433 509.321 727.136 506.773 732.99 501.677C738.929 496.416 743.595 489.019 746.988 479.484C750.467 469.95 752.206 458.525 752.206 445.209C752.206 426.962 748.855 412.25 742.153 401.071C735.535 389.893 726.118 384.304 713.901 384.304H672.032V509.321Z" fill="white"/>
</svg>
