<svg width="688" height="688" viewBox="0 0 688 688" fill="none" xmlns="http://www.w3.org/2000/svg">
<g clip-path="url(#clip0_1235_5)">
<path d="M129.174 357.23C129.174 357.23 136.85 367.644 150.422 367.644C158.098 367.644 164.951 363.946 164.951 356.678C164.951 341.601 126.296 344.342 126.296 322.135C126.296 309.659 136.987 303.491 150.833 303.491C157.824 303.491 171.805 306.232 171.805 315.967V321.861H163.032V318.571C163.032 313.5 155.631 311.581 151.107 311.581C141.513 311.581 135.756 314.87 135.756 321.586C135.756 337.078 174.412 333.514 174.412 356.404C174.412 367.918 163.995 375.734 150.285 375.734C132.327 375.734 123.828 363.669 123.828 363.669L129.174 357.23ZM191.674 288.828C191.674 286.909 190.577 285.812 188.658 285.812H182.901V277.722H192.633C198.527 277.722 200.997 279.778 200.997 285.672V331.458H208.124C210.729 331.458 214.018 330.636 215.937 328.169L233.619 305.141H244.995L225.118 330.364C221.691 334.614 219.909 335.302 219.909 335.302V335.576C219.909 335.576 221.965 336.535 224.158 340.647L236.634 362.992C237.868 365.319 239.238 366.007 242.939 366.007H246.64V374.094H240.198C233.345 374.094 231.426 372.998 228.273 367.241L214.564 342.566C213.056 339.825 209.766 339.551 207.299 339.551H200.994V374.094H191.671L191.674 288.828ZM262.677 394.512C268.708 394.512 272.82 389.577 275.424 383.269L279.536 373.812L255.272 316.378C254.176 313.911 252.942 313.225 250.475 313.225H249.104V305.138H253.354C259.522 305.138 261.44 306.509 263.908 312.677L281.589 355.719C282.96 359.146 284.056 363.121 284.056 363.121H284.331C284.331 363.121 285.29 359.146 286.661 355.719L303.657 312.677C305.987 306.509 308.043 305.138 314.351 305.138H318.6V313.225H317.229C314.762 313.225 313.392 313.911 312.432 316.378L282.686 388.481C279.119 397.253 272.132 402.876 262.945 402.876C253.351 402.876 248.002 396.156 248.002 396.156L252.388 389.303C252.394 389.443 256.78 394.512 262.677 394.512ZM360.68 302.534C380.691 302.534 391.659 317.2 391.659 335.707C391.659 337.763 391.245 342.149 391.245 342.149H342.995C344.366 354.488 353.412 360.93 363.966 360.93C375.209 360.93 383.57 353.118 383.57 353.118L390.834 365.182C390.834 365.182 380.143 375.736 362.733 375.736C339.566 375.736 325.174 359.014 325.174 339.137C325.174 317.612 339.706 302.534 360.68 302.534ZM373.835 330.087C373.561 321.726 367.807 315.97 360.68 315.97C351.767 315.97 345.462 321.315 343.543 330.087H373.835ZM408.51 321.998C408.51 319.942 407.414 318.982 405.495 318.982H400.009V304.179H416.049C422.217 304.179 425.232 307.057 425.232 311.992V314.048C425.232 315.556 424.958 317.063 424.958 317.063H425.232C428.248 311.169 435.786 302.534 449.907 302.534C465.398 302.534 474.308 310.621 474.308 329.128V356.407C474.308 358.326 475.404 359.425 477.323 359.425H482.809V374.092H466.221C459.639 374.092 456.897 371.35 456.897 364.768V332.692C456.897 324.191 454.704 318.434 445.932 318.434C436.609 318.434 429.618 324.328 427.151 332.692C426.192 335.57 425.783 338.723 425.783 342.012V374.089H408.51V321.998ZM520.634 302.534C536.81 302.534 542.156 312.403 542.156 312.403H542.43V310.621C542.43 307.469 544.626 304.179 550.106 304.179H566.28V318.982H560.934C559.152 318.982 557.919 319.942 557.919 321.724V369.837C557.919 393.823 539.277 402.873 521.045 402.873C512.272 402.873 502.949 400.406 496.233 396.842L501.581 383.132C501.581 383.132 510.214 387.795 520.91 387.795C531.465 387.795 540.648 383.269 540.648 370.659V367.37C540.648 365.725 540.785 363.669 540.785 363.669H540.511C536.399 369.563 530.365 372.718 521.048 372.718C501.033 372.718 489.656 356.541 489.656 337.349C489.656 318.157 500.482 302.534 520.634 302.534ZM541.059 337.489C541.059 321.586 533.109 317.337 523.649 317.337C513.095 317.337 507.335 325.013 507.335 336.801C507.335 349.003 513.503 358.049 524.746 358.049C533.109 358.052 541.059 353.252 541.059 337.489Z" fill="#333333"/>
</g>
<defs>
<clipPath id="clip0_1235_5">
<rect width="688" height="688" fill="white"/>
</clipPath>
</defs>
</svg>
